<svg viewBox="0 0 24 24" fill="none" xmlns="http://www.w3.org/2000/svg">
<path d="M23.4993 6.62248C23.363 6.11351 23.0952 5.64941 22.7226 5.27684C22.3501 4.90427 21.8861 4.63636 21.3772 4.50009C19.505 4 11.9995 4 11.9995 4C11.9995 4 4.49901 4 2.62288 4.50009C2.11398 4.63636 1.64992 4.90427 1.27739 5.27684C0.904866 5.64941 0.636998 6.11351 0.500737 6.62248C0.155097 8.52845 -0.0123036 10.4625 0.000703432 12.3995C-0.0122845 14.3369 0.155116 16.2712 0.500737 18.1775C0.636998 18.6865 0.904866 19.1506 1.27739 19.5232C1.64992 19.8957 2.11398 20.1636 2.62288 20.2999C4.49401 20.8 11.9995 20.8 11.9995 20.8C11.9995 20.8 19.5 20.8 21.3772 20.2999C21.8861 20.1636 22.3501 19.8957 22.7226 19.5232C23.0952 19.1506 23.363 18.6865 23.4993 18.1775C23.8446 16.2712 24.012 14.3368 23.9993 12.3995C24.012 10.4625 23.8446 8.5285 23.4993 6.62248ZM9.59836 16.0001V8.79886L15.8338 12.3995L9.59836 16.0001Z" fill="#FF0000"/>
</svg>